<?xml version="1.0" encoding="UTF-8" standalone="no"?>
<!-- Generator: Adobe Illustrator 22.1.0, SVG Export Plug-In . SVG Version: 6.00 Build 0)  -->

<svg
   version="1.1"
   id="Layer_1"
   x="0px"
   y="0px"
   viewBox="0 0 800 800"
   style="enable-background:new 0 0 800 800;"
   xml:space="preserve"
   sodipodi:docname="05.svg"
   inkscape:version="1.4.4 (dcaf3e7, 2026-05-05)"
   xmlns:inkscape="http://www.inkscape.org/namespaces/inkscape"
   xmlns:sodipodi="http://sodipodi.sourceforge.net/DTD/sodipodi-0.dtd"
   xmlns="http://www.w3.org/2000/svg"
   xmlns:svg="http://www.w3.org/2000/svg"><defs
   id="defs3" /><sodipodi:namedview
   id="namedview3"
   pagecolor="#ffffff"
   bordercolor="#000000"
   borderopacity="0.25"
   inkscape:showpageshadow="2"
   inkscape:pageopacity="0.0"
   inkscape:pagecheckerboard="0"
   inkscape:deskcolor="#d1d1d1"
   showgrid="false"
   inkscape:zoom="1.031492"
   inkscape:cx="814.83907"
   inkscape:cy="378.57782"
   inkscape:window-width="2560"
   inkscape:window-height="1369"
   inkscape:window-x="1432"
   inkscape:window-y="223"
   inkscape:window-maximized="1"
   inkscape:current-layer="Layer_1" />
<style
   type="text/css"
   id="style1">
	.st0{fill:#3F3F3F;}
</style>
<g
   id="g3">
	<polygon
   class="st0"
   points="390.8,212.1 346.4,288.8 435,288.8  "
   id="polygon1" />
	<path
   class="st0"
   d="M601.3,207.8c60.8,0,110.2-48.9,110.2-109.1c0-25.7-8.8-49.2-23.8-67.7l-52.7,31.8   c7.4,7.8,11.6,18.1,11.6,29.7c0,24-19.5,43.5-43.5,43.5c-19,0-34.9-12.1-40.9-29l-61.5,37.3C518.4,181.6,556.9,207.8,601.3,207.8z"
   id="path1" />
	<path
   class="st0"
   d="M711.1,257.9c-17.3,156.1-76.5,198.2-76.5,198.2c-2.9-86.7-24.5-108.3-24.5-108.3c5.7,72.2-52,157.5-52,157.5   c-5.7-46.3-37.5-98.4-37.5-98.4c-8.8,79.6-56.3,135.9-56.3,135.9c0-34.7-31.8-98.4-31.8-98.4c-5.7,47.8-31.8,117.1-31.8,117.1   s-26.1-69.4-31.8-117.1c0,0-31.8,63.7-31.8,98.4c0,0-47.8-56.3-56.3-135.9c0,0-31.8,52-37.5,98.4c0,0-57.7-85.3-52-157.5   c0,0-21.6,21.6-24.5,108.3c0,0-59.2-41.8-76.5-198.2c0,0-76.5,180.8,57.7,406.3c0,0,7.1-68,18.8-76.5c0,0,15.9,85.3,57.7,125.7   c0,0,7.1-53.5,20.2-68c0,0,20.2,72.2,56.3,99.8c0,0,0-56.3,18.8-82.4c0,0,23,81,46.3,106.9c0,0,20.2-89.6,34.7-95.5   c14.5,5.7,34.7,95.5,34.7,95.5c23-26.1,46.3-106.9,46.3-106.9c18.8,26.1,18.8,82.4,18.8,82.4c36.1-27.6,56.3-99.8,56.3-99.8   c13.1,14.5,20.2,68,20.2,68c41.8-40.4,57.7-125.7,57.7-125.7c11.6,8.8,18.8,76.5,18.8,76.5C787.9,438.7,711.1,257.9,711.1,257.9z"
   id="path2" />
	<path
   class="st0"
   d="M189.1,207.8c44.4,0,82.9-26.1,100.3-63.7l-53.5-32.3c-7.1,14.3-21.9,24.2-38.7,24.2   c-24,0-43.5-19.5-43.5-43.5c0-9.5,3.1-18.3,8.3-25.4L102.6,31c-15,18.5-23.8,42.1-23.8,67.7C78.9,158.8,128.3,207.8,189.1,207.8z"
   id="path3" />
</g>
<path
   style="fill:#ffffff;stroke-width:0.685518"
   d="m 178.23479,206.96449 c -9.03654,-1.29155 -16.19244,-2.83894 -22.62211,-4.8918 -43.79622,-13.9832 -74.19617,-53.47451 -76.24784,-99.05043 -0.850093,-18.884009 3.838979,-39.394316 12.6607,-55.37873 3.051529,-5.529179 8.56622,-13.794617 9.99479,-14.980227 0.91211,-0.756978 5.32754,1.700839 30.10393,16.757114 l 29.03505,17.644204 -2.96829,5.884999 c -3.02967,6.006686 -4.97765,13.675244 -4.97765,19.595367 0,5.699439 1.97978,13.604773 4.89284,19.537273 3.48486,7.09697 10.89116,14.90656 17.72927,18.69464 12.81883,7.10121 29.6912,7.12692 42.35758,0.0646 5.43416,-3.02992 12.11113,-9.25706 15.22596,-14.20018 1.31963,-2.09419 2.59994,-3.82244 2.84515,-3.84056 0.3541,-0.0262 44.85669,26.56433 51.17929,30.57984 l 1.58229,1.00491 -2.5187,4.58533 c -16.30998,29.69256 -43.4073,49.73112 -76.29198,56.41821 -6.38156,1.29769 -26.86395,2.30674 -31.98028,1.57548 z"
   id="path4" /><path
   style="fill:#ffffff;stroke-width:0.685518"
   d="m 590.23136,206.96449 c -15.07273,-2.15428 -27.08802,-5.69673 -38.21386,-11.26651 -20.25022,-10.13762 -37.1745,-26.2869 -47.88815,-45.69527 -2.7765,-5.02977 -2.83484,-5.25822 -1.57819,-6.18013 2.08966,-1.53302 57.54646,-35.09057 58.75957,-35.55608 0.78943,-0.30293 1.22849,0.091 1.55606,1.39617 0.78983,3.14693 6.7404,11.52767 10.83947,15.26622 8.12769,7.41285 17.83769,11.14652 28.98829,11.14652 8.50058,0 12.41039,-0.90054 19.99219,-4.60477 10.67631,-5.2161 18.6113,-14.45859 22.23671,-25.9008 1.2332,-3.89213 1.52042,-6.417385 1.52042,-13.367612 0,-10.607382 -1.60545,-16.211043 -6.91878,-24.14922 l -3.55736,-5.314755 25.65149,-15.498786 c 21.49689,-12.988548 25.81938,-15.359456 26.68804,-14.638528 1.80053,1.494302 8.25489,11.715537 11.44684,18.127424 12.64811,25.407036 14.76705,54.591397 5.92289,81.576697 -2.81274,8.58223 -9.35074,21.40679 -14.8448,29.11867 -5.93421,8.32971 -17.25951,19.6485 -25.55242,25.53772 -12.05883,8.56359 -27.85733,15.3407 -42.8664,18.38849 -6.57702,1.33555 -26.97427,2.35887 -32.18201,1.61455 z"
   id="path5" /><path
   style="fill:#ffffff;stroke-width:0.685518"
   d="m 348.45779,286.03256 c 0.74499,-1.22536 10.53206,-18.11482 21.74906,-37.53213 11.21699,-19.41731 20.44106,-35.36971 20.49792,-35.44979 0.0569,-0.0801 5.37741,9.02019 11.82342,20.2228 6.44601,11.20261 16.21222,28.15758 21.7027,37.67772 l 9.98267,17.30934 h -43.55515 -43.55515 z"
   id="path6" /><path
   style="fill:#ff5c00;stroke-width:0.685518;fill-opacity:1"
   d="m 361.28591,762.81063 c -10.65973,-14.93431 -29.91291,-61.10199 -39.45143,-94.60155 -0.88567,-3.11054 -1.8508,-5.65552 -2.14473,-5.65552 -0.84657,0 -5.85538,9.41019 -8.20989,15.42416 -4.89742,12.50915 -8.74821,32.96355 -10.28677,54.64072 l -0.81289,11.45307 -2.60328,-2.06184 c -6.63374,-5.25402 -16.36698,-17.47212 -24.12065,-30.27855 -9.03197,-14.91775 -19.51589,-38.40368 -26.16009,-58.60344 -1.39519,-4.24165 -2.79322,-7.71208 -3.10674,-7.71208 -1.96233,0 -8.16304,13.76876 -11.65346,25.87667 -1.98011,6.86879 -6.73561,29.33019 -8.01588,37.86097 l -0.56351,3.75478 -5.36412,-6.15409 c -19.64144,-22.53401 -37.90277,-62.21973 -48.1723,-104.68857 -1.75624,-7.26277 -3.33192,-13.66776 -3.50151,-14.23331 -0.22627,-0.75458 -0.84375,-0.39282 -2.31985,1.35911 -5.29606,6.28571 -11.0533,29.00744 -15.31385,60.4383 -0.9238,6.81504 -1.77388,12.48363 -1.88907,12.59686 -0.11518,0.11324 -3.0283,-4.77966 -6.47359,-10.87311 C 97.937961,574.97607 74.170414,496.6961 69.593037,415.76692 66.757154,365.62779 73.243996,310.36283 86.850634,268.74 c 3.445213,-10.53894 3.007961,-11.31001 6.015931,10.60876 9.363135,68.22819 30.818035,127.22334 58.850745,161.82354 5.02616,6.20367 14.31782,15.47181 14.9137,14.87593 0.23809,-0.2381 0.70797,-5.31139 1.04418,-11.27398 2.10745,-37.37526 8.52367,-68.30642 18.09126,-87.21394 5.14097,-10.1596 5.10352,-10.1706 5.12863,1.50698 0.0268,12.48797 0.86301,20.50176 3.49568,33.50263 4.66623,23.04321 13.07125,46.51174 26.35288,73.58261 7.69583,15.68578 21.78075,40.15493 22.61846,39.29411 0.11751,-0.12077 0.71613,-3.13921 1.33028,-6.70766 2.26506,-13.16105 6.92348,-28.71804 13.55531,-45.26854 3.63245,-9.0652 14.15996,-30.94395 19.26775,-40.04311 l 3.04499,-5.42442 0.46471,3.71063 c 4.09149,32.66947 16.38924,68.31737 34.23931,99.25066 6.02337,10.43821 13.94512,22.50034 18.74272,28.5388 l 3.26789,4.11311 0.17673,-2.74207 c 1.29474,-20.08931 10.22814,-48.80517 26.28098,-84.47856 2.41484,-5.36638 4.62199,-9.76227 4.90476,-9.76864 0.28278,-0.006 0.51414,0.72998 0.51414,1.63633 0,3.5459 3.76503,22.09052 7.59855,37.42663 4.69492,18.78216 9.47122,34.80929 16.76346,56.25079 2.878,8.46224 5.56655,16.38846 5.97455,17.61382 0.40799,1.22537 0.9297,2.22794 1.15937,2.22794 0.48603,0 8.17491,-21.90553 12.75274,-36.33248 8.81031,-27.76548 16.80141,-60.06172 18.5569,-74.99823 0.24799,-2.11001 0.64126,-3.83639 0.87393,-3.83639 0.60806,0 9.12275,19.03757 14.20553,31.76143 9.78738,24.50097 16.6584,49.69018 16.74505,61.38749 l 0.0285,3.85194 2.42688,-2.74207 c 1.33478,-1.50814 5.13043,-6.75236 8.43476,-11.65382 22.91859,-33.99608 38.03851,-71.4061 44.55132,-110.2298 l 1.81671,-10.82962 5.26154,9.80135 c 15.93019,29.67515 27.0032,59.386 30.72025,82.42782 l 0.87059,5.39672 1.33366,-1.64701 c 4.12839,-5.09834 18.37751,-31.00469 25.41847,-46.21337 16.90365,-36.51234 24.87674,-66.0217 25.74547,-95.28706 l 0.40699,-13.71037 2.53617,4.26232 c 10.81592,18.17734 17.84428,49.76883 20.38267,91.61718 0.36281,5.98138 0.8611,11.07135 1.1073,11.31106 0.70135,0.68284 14.61798,-14.15184 18.93451,-20.18359 23.82036,-33.28562 40.98472,-78.36862 51.3669,-134.91752 1.67387,-9.11716 3.64525,-22.02373 5.82284,-38.12201 l 0.41728,-3.08484 1.68633,4.45587 c 2.21632,5.85632 7.23722,23.67506 9.46499,33.5904 3.69067,16.42648 6.86401,37.35889 8.72965,57.58355 1.33771,14.50163 1.11846,61.14011 -0.36093,76.77807 -6.40974,67.75434 -24.45482,129.24968 -56.72634,193.31619 -7.71884,15.32369 -19.76314,37.31433 -20.1986,36.87886 -0.11203,-0.11204 -0.7023,-4.05973 -1.3117,-8.77264 -4.36298,-33.74168 -11.14773,-60.33465 -16.66536,-65.32022 -1.33385,-1.20522 -1.37878,-1.11987 -2.88663,5.48415 -11.16346,48.89306 -31.32912,93.26302 -52.35338,115.19172 -3.21337,3.35161 -3.87887,3.56526 -3.87887,1.24529 0,-5.64378 -6.57814,-35.18806 -10.31289,-46.31813 -3.09385,-9.2201 -8.66011,-19.80573 -9.73261,-18.50899 -0.15592,0.18851 -2.07738,5.58697 -4.26992,11.99657 -4.84746,14.17091 -9.88168,26.2586 -16.13397,38.73938 -9.34314,18.65072 -17.33847,30.37501 -28.04397,41.12351 l -7.16916,7.19795 -0.54574,-8.91174 c -1.11662,-18.23349 -3.90511,-35.98051 -7.71971,-49.13105 -3.03524,-10.46374 -10.01337,-24.94404 -11.29649,-23.4413 -0.27845,0.3261 -1.53273,3.98623 -2.7873,8.13362 -11.6154,38.3986 -29.8382,80.76085 -40.63424,94.46177 -1.1278,1.43127 -2.20032,2.45254 -2.38336,2.2695 -0.18304,-0.18304 -2.00637,-6.90677 -4.05184,-14.94163 -11.97235,-47.02874 -23.02984,-75.86214 -30.04817,-78.3533 -1.74723,-0.62018 -2.13503,-0.41956 -4.63795,2.39932 -7.27856,8.19738 -18.28524,39.20685 -28.03974,78.99724 -1.64062,6.69237 -3.20698,12.16795 -3.48081,12.16795 -0.27382,0 -2.20431,-2.39074 -4.28997,-5.31276 z"
   id="path7" /><path
   style="fill:#ff5c00;fill-opacity:1;stroke-width:0.685518"
   d="m 580.89058,204.99048 c -30.4422,-6.50644 -55.27671,-23.01267 -71.71305,-47.664 -4.36713,-6.54986 -7.30486,-12.36244 -6.57492,-13.00915 1.32199,-1.17125 56.83076,-34.64983 58.52138,-35.29554 0.75355,-0.28782 1.30877,0.29748 1.94115,2.0463 1.4498,4.00935 8.72309,13.02755 13.30137,16.49248 8.26733,6.25687 15.41071,8.51901 26.86235,8.5067 4.41228,-0.005 9.14024,-0.42409 11.33841,-1.00566 11.55349,-3.05673 22.91322,-12.38962 27.96977,-22.97935 3.645,-7.63357 4.52329,-12.471218 4.07974,-22.471366 -0.42014,-9.472327 -1.91998,-14.270743 -6.83333,-21.861736 l -3.1818,-4.915795 23.43011,-14.102415 c 12.88656,-7.756329 24.46122,-14.490237 25.72148,-14.96424 2.17374,-0.81758 2.37393,-0.758386 3.89952,1.153057 3.07611,3.854099 9.81184,15.850696 12.65919,22.546499 9.71704,22.850486 10.80014,50.795676 2.90062,74.838796 -2.18975,6.66473 -8.88897,20.08294 -13.51905,27.07797 -5.2933,7.99701 -21.1661,23.58549 -29.63051,29.09976 -8.33805,5.43194 -17.85015,9.98863 -27.34176,13.09786 -10.91339,3.57496 -16.94623,4.47789 -32.15056,4.81196 -12.66489,0.27828 -14.3181,0.17136 -21.68011,-1.40213 z"
   id="path8" /><path
   style="fill:#ff5c00;fill-opacity:1;stroke-width:0.685518"
   d="m 348.01485,287.70767 c 0.48891,-1.18281 42.52805,-73.48316 42.72689,-73.48316 0.26675,0 24.13141,41.15272 42.63567,73.52185 0.16165,0.28277 -19.03021,0.51414 -42.64858,0.51414 -23.61836,0 -42.83966,-0.24877 -42.71398,-0.55283 z"
   id="path9" /><path
   style="fill:#ffffff;fill-opacity:1;stroke-width:0.685518"
   d="m 168.63753,204.89003 c -10.51134,-2.1774 -18.78038,-4.93404 -27.49303,-9.16533 -30.58396,-14.85307 -51.676178,-41.94562 -59.358748,-76.24519 -1.374203,-6.13526 -1.577532,-8.88567 -1.560417,-21.107616 0.02172,-15.506981 0.958755,-21.708618 5.204733,-34.446638 3.828146,-11.484516 14.490935,-30.09072 17.500572,-30.5379 0.81904,-0.121695 11.2345,5.752988 25.99602,14.662666 13.54621,8.176143 26.19865,15.812985 28.11654,16.970762 l 3.48708,2.105048 -2.5744,5.511634 c -3.44417,7.373784 -4.74456,12.777112 -4.73238,19.663713 0.0356,20.129311 13.40877,37.687271 32.55199,42.738331 5.3879,1.42163 17.17822,1.43074 22.62211,0.0175 9.35724,-2.42918 17.81181,-8.26504 24.23595,-16.72912 l 3.6704,-4.83591 2.14695,1.11023 c 2.90636,1.50294 47.07589,27.98064 48.70503,29.19654 1.2431,0.92778 1.17743,1.16904 -1.64592,6.04738 -5.14051,8.88209 -10.40684,15.83883 -17.72224,23.41079 -14.64529,15.15896 -31.53076,25.04556 -51.74647,30.29804 -13.77036,3.57784 -33.84727,4.14329 -47.40377,1.33509 z"
   id="path10" /><path
   style="fill:#ff5c00;fill-opacity:1;stroke-width:0.969469"
   d="m 176.92817,206.34571 c -1.33302,-0.20459 -6.56815,-1.28217 -11.63363,-2.39463 -39.74368,-8.72833 -71.338806,-39.14792 -82.162315,-79.10537 -2.324839,-8.58268 -2.565334,-11.08285 -2.543734,-26.444561 0.02135,-15.181479 0.289523,-17.955284 2.549997,-26.375203 3.951265,-14.717856 16.238328,-38.57925 19.865802,-38.57925 1.15959,0 48.44379,27.794903 54.72271,32.167458 l 2.61189,1.818885 -2.78339,5.885474 c -6.03125,12.753074 -5.99785,26.37962 0.0945,38.571557 7.78409,15.57734 22.00683,24.32039 39.56316,24.32039 14.02861,0 22.5901,-3.96002 33.01011,-15.26845 l 6.74346,-7.31839 25.67657,15.41366 25.67657,15.41367 -2.97817,5.33208 c -14.27305,25.55431 -38.3013,44.71212 -66.23028,52.80561 -11.25822,3.2625 -32.86615,5.18702 -42.18328,3.75707 z"
   id="path11" /><path
   style="fill:#ff5c00;fill-opacity:1;stroke-width:0.969469"
   d="M 164.80981,203.16787 C 142.86735,197.60706 128.39555,189.56511 113.33163,174.56155 102.80309,164.07521 97.40479,156.75499 91.579865,145.06569 83.747139,129.34718 80.987999,117.45855 80.974856,99.370619 80.960321,79.367256 82.898425,70.599198 91.259413,52.842885 96.56846,41.568005 101.06817,34.416166 102.85291,34.416166 c 1.29539,0 33.24653,18.353915 48.62356,27.931173 4.21439,2.624843 7.44154,5.290605 7.34584,6.067982 -0.0939,0.762564 -1.387,4.222178 -2.87362,7.688031 -2.34446,5.465793 -2.70756,7.587333 -2.73773,15.996246 -0.041,11.432002 1.55994,16.960022 7.47865,25.823372 5.1025,7.64105 13.38853,13.7826 22.21034,16.46214 5.53041,1.67981 8.52904,1.96809 17.09105,1.64309 13.4794,-0.51166 18.74722,-2.95831 29.35216,-13.63268 4.10548,-4.13237 7.70424,-7.51339 7.99722,-7.51339 0.42559,0 48.69885,28.65771 49.96968,29.6648 0.19089,0.15127 -1.30657,3.02727 -3.32771,6.39109 -17.64293,29.36342 -45.85785,48.83415 -77.72623,53.63779 -15.00586,2.26189 -28.81676,1.79274 -41.44631,-1.40794 z"
   id="path12" /></svg>
